<?xml version="1.0" encoding="iso-8859-1"?>
<!-- Uploaded to: SVG Repo, www.svgrepo.com, Generator: SVG Repo Mixer Tools -->
<svg version="1.1" id="Layer_1" xmlns="http://www.w3.org/2000/svg" xmlns:xlink="http://www.w3.org/1999/xlink" 
	 viewBox="0 0 512 512" xml:space="preserve">
<path style="fill:#00C23F;" d="M504.082,18.474v475.052c0,5.806-4.751,10.557-10.557,10.557H18.474
	c-5.806,0-10.557-4.751-10.557-10.557V18.474c0-5.806,4.751-10.557,10.557-10.557h475.052
	C499.332,7.918,504.082,12.668,504.082,18.474z"/>
<path style="fill:#26CE3F;" d="M108.569,7.918H18.474c-5.806,0-10.557,4.751-10.557,10.557v475.052
	c0,5.806,4.751,10.557,10.557,10.557h475.052c5.806,0,10.557-4.751,10.557-10.557v-54.291
	C303.814,380.932,149.697,214.96,108.569,7.918z"/>
<path d="M493.526,512H18.474C8.288,512,0,503.712,0,493.526V18.474C0,8.288,8.288,0,18.474,0h475.052
	C503.712,0,512,8.288,512,18.474v475.052C512,503.712,503.712,512,493.526,512z M18.474,15.835c-1.43,0-2.639,1.209-2.639,2.639
	v475.052c0,1.43,1.209,2.639,2.639,2.639h475.052c1.43,0,2.639-1.209,2.639-2.639V18.474c0-1.43-1.209-2.639-2.639-2.639H18.474z"/>
<g>
	<rect x="34.309" y="36.948" style="fill:#FFFFFF;" width="26.392" height="15.835"/>
	<rect x="451.299" y="36.948" style="fill:#FFFFFF;" width="26.392" height="15.835"/>
	<rect x="34.309" y="459.217" style="fill:#FFFFFF;" width="26.392" height="15.835"/>
	<rect x="451.299" y="459.217" style="fill:#FFFFFF;" width="26.392" height="15.835"/>
	<polygon style="fill:#FFFFFF;" points="290.309,221.855 290.309,182.982 274.474,182.982 274.474,248.962 340.454,248.962 
		340.454,233.127 301.432,233.127 446.356,87.398 435.128,76.231 	"/>
	<polygon style="fill:#FFFFFF;" points="221.691,220.975 76.872,75.352 65.644,86.517 210.568,232.247 171.546,232.247 
		171.546,248.082 237.526,248.082 237.526,182.103 221.691,182.103 	"/>
	<polygon style="fill:#FFFFFF;" points="171.546,288.549 210.568,288.549 65.644,434.279 76.872,445.445 221.691,299.822 
		221.691,338.694 237.526,338.694 237.526,272.714 171.546,272.714 	"/>
	<polygon style="fill:#FFFFFF;" points="335.175,289.43 335.175,273.595 269.196,273.595 269.196,339.574 285.031,339.574 
		285.031,300.701 429.85,446.326 441.078,435.159 296.154,289.43 	"/>
</g>
</svg>